<svg xmlns="http://www.w3.org/2000/svg" width="980" height="624" viewBox="0 0 980 624">
<rect width="980" height="624" fill="white"/>
<text x="24" y="40" font-family="Arial, sans-serif" font-size="26" font-weight="700" fill="#334155">Project Lattice data readiness</text>
<text x="24" y="64" font-family="Arial, sans-serif" font-size="14" fill="#64748b">What is ready to review now vs what still needs an owner.</text>
<rect x="24" y="88" width="932" height="42" rx="8" fill="#f8fafc" stroke="#cbd5e1"/>
<text x="44" y="115" font-family="Arial, sans-serif" font-size="16" font-weight="700" fill="#334155">Parcel graph</text>
<rect x="265" y="98" width="104" height="22" rx="11" fill="#059669"/>
<text x="317" y="114" text-anchor="middle" font-family="Arial, sans-serif" font-size="12" font-weight="700" fill="white">Available</text>
<text x="390" y="115" font-family="Arial, sans-serif" font-size="15" fill="#334155">Contra Costa parcels, APN, address fields</text>
<rect x="24" y="142" width="932" height="42" rx="8" fill="#f8fafc" stroke="#cbd5e1"/>
<text x="44" y="169" font-family="Arial, sans-serif" font-size="16" font-weight="700" fill="#334155">San Ramon filter</text>
<rect x="265" y="152" width="104" height="22" rx="11" fill="#059669"/>
<text x="317" y="168" text-anchor="middle" font-family="Arial, sans-serif" font-size="12" font-weight="700" fill="white">Available</text>
<text x="390" y="169" font-family="Arial, sans-serif" font-size="15" fill="#334155">City limits + SNRMN parcel code</text>
<rect x="24" y="196" width="932" height="42" rx="8" fill="#f8fafc" stroke="#cbd5e1"/>
<text x="44" y="223" font-family="Arial, sans-serif" font-size="16" font-weight="700" fill="#334155">Zoning / land use</text>
<rect x="265" y="206" width="104" height="22" rx="11" fill="#059669"/>
<text x="317" y="222" text-anchor="middle" font-family="Arial, sans-serif" font-size="12" font-weight="700" fill="white">Available</text>
<text x="390" y="223" font-family="Arial, sans-serif" font-size="15" fill="#334155">County zoning and general-plan layers</text>
<rect x="24" y="250" width="932" height="42" rx="8" fill="#f8fafc" stroke="#cbd5e1"/>
<text x="44" y="277" font-family="Arial, sans-serif" font-size="16" font-weight="700" fill="#334155">Schools</text>
<rect x="265" y="260" width="104" height="22" rx="11" fill="#059669"/>
<text x="317" y="276" text-anchor="middle" font-family="Arial, sans-serif" font-size="12" font-weight="700" fill="white">Available</text>
<text x="390" y="277" font-family="Arial, sans-serif" font-size="15" fill="#334155">CDE public schools/districts</text>
<rect x="24" y="304" width="932" height="42" rx="8" fill="#f8fafc" stroke="#cbd5e1"/>
<text x="44" y="331" font-family="Arial, sans-serif" font-size="16" font-weight="700" fill="#334155">Risk</text>
<rect x="265" y="314" width="104" height="22" rx="11" fill="#059669"/>
<text x="317" y="330" text-anchor="middle" font-family="Arial, sans-serif" font-size="12" font-weight="700" fill="white">Available</text>
<text x="390" y="331" font-family="Arial, sans-serif" font-size="15" fill="#334155">CAL FIRE + FEMA attributes</text>
<rect x="24" y="358" width="932" height="42" rx="8" fill="#f8fafc" stroke="#cbd5e1"/>
<text x="44" y="385" font-family="Arial, sans-serif" font-size="16" font-weight="700" fill="#334155">Amenities</text>
<rect x="265" y="368" width="104" height="22" rx="11" fill="#059669"/>
<text x="317" y="384" text-anchor="middle" font-family="Arial, sans-serif" font-size="12" font-weight="700" fill="white">Available</text>
<text x="390" y="385" font-family="Arial, sans-serif" font-size="15" fill="#334155">OSM San Ramon POIs</text>
<rect x="24" y="412" width="932" height="42" rx="8" fill="#f8fafc" stroke="#cbd5e1"/>
<text x="44" y="439" font-family="Arial, sans-serif" font-size="16" font-weight="700" fill="#334155">SF permit demo</text>
<rect x="265" y="422" width="104" height="22" rx="11" fill="#059669"/>
<text x="317" y="438" text-anchor="middle" font-family="Arial, sans-serif" font-size="12" font-weight="700" fill="white">Available</text>
<text x="390" y="439" font-family="Arial, sans-serif" font-size="15" fill="#334155">1.29M permit records</text>
<rect x="24" y="466" width="932" height="42" rx="8" fill="#f8fafc" stroke="#cbd5e1"/>
<text x="44" y="493" font-family="Arial, sans-serif" font-size="16" font-weight="700" fill="#334155">Comparable sales</text>
<rect x="265" y="476" width="104" height="22" rx="11" fill="#d97706"/>
<text x="317" y="492" text-anchor="middle" font-family="Arial, sans-serif" font-size="12" font-weight="700" fill="white">Pending</text>
<text x="390" y="493" font-family="Arial, sans-serif" font-size="15" fill="#334155">Need legal comps source or seed set</text>
<rect x="24" y="520" width="932" height="42" rx="8" fill="#f8fafc" stroke="#cbd5e1"/>
<text x="44" y="547" font-family="Arial, sans-serif" font-size="16" font-weight="700" fill="#334155">Transit / commute</text>
<rect x="265" y="530" width="104" height="22" rx="11" fill="#d97706"/>
<text x="317" y="546" text-anchor="middle" font-family="Arial, sans-serif" font-size="12" font-weight="700" fill="white">Pending</text>
<text x="390" y="547" font-family="Arial, sans-serif" font-size="15" fill="#334155">511 token needed</text>
<rect x="24" y="574" width="932" height="42" rx="8" fill="#f8fafc" stroke="#cbd5e1"/>
<text x="44" y="601" font-family="Arial, sans-serif" font-size="16" font-weight="700" fill="#334155">ACS variables</text>
<rect x="265" y="584" width="104" height="22" rx="11" fill="#d97706"/>
<text x="317" y="600" text-anchor="middle" font-family="Arial, sans-serif" font-size="12" font-weight="700" fill="white">Pending</text>
<text x="390" y="601" font-family="Arial, sans-serif" font-size="15" fill="#334155">Census API key needed</text>
</svg>
