<svg xmlns="http://www.w3.org/2000/svg" width="920" height="493" viewBox="0 0 920 493">
<rect width="920" height="493" fill="white"/>
<text x="24" y="36" font-family="Arial, sans-serif" font-size="24" font-weight="700" fill="#334155">FEMA flood zone counts</text>
<text x="24" y="94" font-family="Arial, sans-serif" font-size="15" fill="#334155">X</text>
<rect x="250" y="77" width="550.0" height="22" rx="4" fill="#d97706"/>
<text x="810.0" y="94" font-family="Arial, sans-serif" font-size="14" fill="#334155">3,852</text>
<text x="24" y="136" font-family="Arial, sans-serif" font-size="15" fill="#334155">AE</text>
<rect x="250" y="119" width="253.7" height="22" rx="4" fill="#d97706"/>
<text x="513.7253374870197" y="136" font-family="Arial, sans-serif" font-size="14" fill="#334155">1,777</text>
<text x="24" y="178" font-family="Arial, sans-serif" font-size="15" fill="#334155">A</text>
<rect x="250" y="161" width="50.8" height="22" rx="4" fill="#d97706"/>
<text x="310.83073727933544" y="178" font-family="Arial, sans-serif" font-size="14" fill="#334155">356</text>
<text x="24" y="220" font-family="Arial, sans-serif" font-size="15" fill="#334155">VE</text>
<rect x="250" y="203" width="38.8" height="22" rx="4" fill="#d97706"/>
<text x="298.8369678089304" y="220" font-family="Arial, sans-serif" font-size="14" fill="#334155">272</text>
<text x="24" y="262" font-family="Arial, sans-serif" font-size="15" fill="#334155">AO</text>
<rect x="250" y="245" width="13.6" height="22" rx="4" fill="#d97706"/>
<text x="273.5643821391485" y="262" font-family="Arial, sans-serif" font-size="14" fill="#334155">95</text>
<text x="24" y="304" font-family="Arial, sans-serif" font-size="15" fill="#334155">AH</text>
<rect x="250" y="287" width="5.4" height="22" rx="4" fill="#d97706"/>
<text x="265.4257528556594" y="304" font-family="Arial, sans-serif" font-size="14" fill="#334155">38</text>
<text x="24" y="346" font-family="Arial, sans-serif" font-size="15" fill="#334155">D</text>
<rect x="250" y="329" width="4.1" height="22" rx="4" fill="#d97706"/>
<text x="264.1407061266874" y="346" font-family="Arial, sans-serif" font-size="14" fill="#334155">29</text>
<text x="24" y="388" font-family="Arial, sans-serif" font-size="15" fill="#334155">OPEN WATER</text>
<rect x="250" y="371" width="3.0" height="22" rx="4" fill="#d97706"/>
<text x="263" y="388" font-family="Arial, sans-serif" font-size="14" fill="#334155">15</text>
<text x="24" y="430" font-family="Arial, sans-serif" font-size="15" fill="#334155">V</text>
<rect x="250" y="413" width="3.0" height="22" rx="4" fill="#d97706"/>
<text x="263" y="430" font-family="Arial, sans-serif" font-size="14" fill="#334155">1</text>
</svg>
